<svg id="Layer_1" data-name="Layer 1" xmlns="http://www.w3.org/2000/svg" xmlns:xlink="http://www.w3.org/1999/xlink" viewBox="0 0 1053 80.83"><defs><style>.cls-1{fill:none;}.cls-2{fill:#14753c;}.cls-3{fill:#152310;}.cls-4{fill:#2f5329;}.cls-5{fill:#c4007b;}.cls-6{fill:#303030;}.cls-7{clip-path:url(#clip-path);}.cls-8{fill:#005bab;}</style><clipPath id="clip-path"><rect class="cls-1" x="313" y="-15.15" width="730.99" height="117"/></clipPath></defs><title>saude</title><path class="cls-2" d="M79.58,50.4a16.78,16.78,0,0,1-6.46-1.24,15.54,15.54,0,0,1-5.25-3.46A16.69,16.69,0,0,1,63,33.82v-.1a16.73,16.73,0,0,1,4.81-11.84,16.26,16.26,0,0,1,5.34-3.55,17.53,17.53,0,0,1,6.75-1.28,19.38,19.38,0,0,1,4.49.48,15.39,15.39,0,0,1,3.69,1.37,14.9,14.9,0,0,1,3,2.13,17.13,17.13,0,0,1,2.41,2.71l-6.69,5.17a11.38,11.38,0,0,0-3-2.74,7.44,7.44,0,0,0-4-1,7.13,7.13,0,0,0-3.09.66,7.39,7.39,0,0,0-2.4,1.81,8.53,8.53,0,0,0-1.59,2.7,9.54,9.54,0,0,0-.57,3.3v.09a9.81,9.81,0,0,0,.57,3.37,8.57,8.57,0,0,0,1.59,2.73,7.53,7.53,0,0,0,2.4,1.81,7.13,7.13,0,0,0,3.09.66A8.94,8.94,0,0,0,82.12,42,6.9,6.9,0,0,0,84,41.21,10.33,10.33,0,0,0,85.6,40a18.91,18.91,0,0,0,1.49-1.58l6.69,4.76a23.9,23.9,0,0,1-2.5,2.89,14.37,14.37,0,0,1-3.07,2.29,16.18,16.18,0,0,1-3.85,1.51A19,19,0,0,1,79.58,50.4Z"/><path class="cls-2" d="M97.58,17.69h15.16a18.79,18.79,0,0,1,6.28.92,10.73,10.73,0,0,1,4.17,2.56A9.92,9.92,0,0,1,126,28.64v.09a10.11,10.11,0,0,1-1.79,6.14,11.22,11.22,0,0,1-4.81,3.71l7.65,11.18H116.82l-6.46-9.71h-3.89v9.71H97.58Zm14.75,15.39a5.36,5.36,0,0,0,3.53-1,3.44,3.44,0,0,0,1.24-2.77v-.09a3.3,3.3,0,0,0-1.29-2.86,5.82,5.82,0,0,0-3.52-.94h-5.82v7.69Z"/><path class="cls-2" d="M145,50.35a20.53,20.53,0,0,1-6.19-.87,11.93,11.93,0,0,1-4.67-2.68,11.7,11.7,0,0,1-3-4.58,18.65,18.65,0,0,1-1-6.53v-18h9.07V35.51q0,3.48,1.59,5.15A5.6,5.6,0,0,0,145,42.34a5.74,5.74,0,0,0,4.27-1.61q1.59-1.6,1.59-5v-18H160V35.46a18.79,18.79,0,0,1-1.08,6.72,11.62,11.62,0,0,1-7.74,7.3A20.71,20.71,0,0,1,145,50.35Z"/><path class="cls-2" d="M164.24,43.3l16.07-18.1H164.78V17.69h27.81v6.46L176.51,42.24h16.08v7.52H164.24Z"/><path class="cls-2" d="M67.5,53.72h5.33A8.29,8.29,0,0,1,75,54a4.87,4.87,0,0,1,1.62.76,3.25,3.25,0,0,1,1,1.17A3.19,3.19,0,0,1,78,57.43v0a3,3,0,0,1-.43,1.63,3.53,3.53,0,0,1-1.16,1.18,5.47,5.47,0,0,1-1.72.72,8.42,8.42,0,0,1-2.11.25H69.85V64.8H67.5Zm5.12,5.76a3.63,3.63,0,0,0,2.14-.55,1.69,1.69,0,0,0,.79-1.43v0a1.64,1.64,0,0,0-.8-1.48,4,4,0,0,0-2.13-.5H69.85v4Z"/><path class="cls-2" d="M80.39,53.72h6a7.73,7.73,0,0,1,2.26.3,4.58,4.58,0,0,1,1.64.81,3.23,3.23,0,0,1,.83,1.06,2.92,2.92,0,0,1,.29,1.33v0a3.07,3.07,0,0,1-.24,1.23,3.16,3.16,0,0,1-.66,1,3.79,3.79,0,0,1-1,.71,5.11,5.11,0,0,1-1.3.45l3.65,4.2h-2.8l-3.33-3.86h-3V64.8H80.39Zm5.84,5.49a3.63,3.63,0,0,0,2-.5A1.54,1.54,0,0,0,89,57.35v0A1.51,1.51,0,0,0,88.28,56a3.87,3.87,0,0,0-2.07-.47H82.75v3.73Z"/><path class="cls-2" d="M94.35,53.72h10v1.76H96.7v2.85h6.78v1.75H96.7v3h7.74V64.8H94.35Z"/><path class="cls-2" d="M107.28,53.72h10v1.76h-7.69v3.05h6.82v1.76h-6.82V64.8h-2.35Z"/><path class="cls-2" d="M119.94,53.72h10v1.76H122.3v2.85h6.77v1.75H122.3v3H130V64.8h-10.1Z"/><path class="cls-2" d="M133,53.72h2.35V64.8H133Z"/><path class="cls-2" d="M142.31,55.53H138V53.72h11v1.81h-4.28V64.8h-2.4Z"/><path class="cls-2" d="M157,65a8.37,8.37,0,0,1-2.38-.31,5,5,0,0,1-1.81-.92,4.18,4.18,0,0,1-1.16-1.53,5.16,5.16,0,0,1-.4-2.11V53.72h2.35V60a3,3,0,0,0,.91,2.36,3.73,3.73,0,0,0,2.53.8,3.77,3.77,0,0,0,2.5-.77,2.86,2.86,0,0,0,.91-2.31V53.72h2.36V60a5.22,5.22,0,0,1-.42,2.17,4.2,4.2,0,0,1-1.16,1.56,5,5,0,0,1-1.83.93A8.46,8.46,0,0,1,157,65Z"/><path class="cls-2" d="M166.11,53.72h6a7.78,7.78,0,0,1,2.26.3,4.66,4.66,0,0,1,1.64.81,3.23,3.23,0,0,1,.83,1.06,3.05,3.05,0,0,1,.29,1.33v0a3.07,3.07,0,0,1-.24,1.23,3,3,0,0,1-.67,1,3.74,3.74,0,0,1-1,.71,5.25,5.25,0,0,1-1.3.45l3.65,4.2h-2.8l-3.33-3.86h-3V64.8h-2.36ZM172,59.21a3.57,3.57,0,0,0,2-.5,1.53,1.53,0,0,0,.76-1.36v0A1.53,1.53,0,0,0,174,56a3.87,3.87,0,0,0-2.07-.47h-3.46v3.73Z"/><path class="cls-2" d="M184.85,53.64h2.2L193,64.8h-2.51l-1.37-2.68h-6.39l-1.39,2.68h-2.43Zm3.4,6.76L185.91,56,183.6,60.4Z"/><path class="cls-2" d="M22.54,54.92a15.77,15.77,0,0,0,1.68.73C28,57,29.27,58.85,29.35,59L30,60.06l.39.68.38-.67L31.38,59a9.38,9.38,0,0,1,3.91-2.83c.4-.18.82-.35,1.23-.5l.46-.17c4.64-1.85,7.87-5.85,9.33-11.55a28.26,28.26,0,0,0,.84-6.34l0,0s0-.08,0-.12c0-.78,0-1.31,0-1.47V21.5H42.85L39.25,16V12.71H21.49V16l-3.6,5.55H13.62V36c-.06.89-.41,8,3.24,13.76v0l.61.83a14.27,14.27,0,0,0,4.45,4m23.84-10.8c-1.41,5.53-4.52,9.39-9,11.17l-.44.17c-.43.16-.85.33-1.27.52a9.53,9.53,0,0,0-4.15,3l-.54.94-.54-1s-1.3-2.06-5.42-3.55a13.75,13.75,0,0,1-6.49-4.86l-.59-.82C13.71,43.74,14.14,36.53,14.18,36V22.06h4l3.86-5.94V13.26H38.69v2.86l3.74,5.75,0,.07.1.12h4V36A26.29,26.29,0,0,1,45.77,43.79Z"/><path class="cls-1" d="M24.91,46.68H25l.15.34.9-.69,0,.4h0a2.09,2.09,0,0,1,.08.23,14.74,14.74,0,0,1,.17,4.87c0,.16,0,.28.18.33s.44.14.67.19.29,0,.27-.23a1.31,1.31,0,0,1,0-.28l-.76-.28v-.06l.67.13c.19-.61-.24-.75-.68-.89l0,0,.6.13c0-.25-.06-.47-.11-.69,0,0-.08-.1-.13-.13a1.36,1.36,0,0,1-.34-.21l.44.11c-.1-.32.07-.72-.42-.83h.28c-.08-.27,0-.64-.42-.68l.3,0c-.16-.25.06-.68-.43-.77l.24,0c-.15-.26,0-.64-.43-.76l.2,0-.16-.54,1.3.36.05-.48a1.09,1.09,0,0,1,.18.29.48.48,0,0,0,.35.36,2.26,2.26,0,0,1,.34.18l.15-.19c.14.61.79.77,1.06,1.25a4.62,4.62,0,0,0-.55-1.34,1.6,1.6,0,0,0-1.14-.92l.15-.17a2.56,2.56,0,0,0-.43-.17,3,3,0,0,0-.5,0l.41-.32-.32-.27c.08,0,.14,0,.17,0,.35.19.64,0,.95-.16l-.08-.23c.57.27,1.08-.13,1.61,0a3,3,0,0,0-2.78-.13l0-.18c-.26.13-.56.2-.55.6l-.17-.14c-.17.23-.35.46-.52.7l-.49-.61-.14.19c-.13-.38-.46-.32-.76-.4v.19h-.07a1.58,1.58,0,0,0-1.21.07c-.28.11-.55.24-.81.37a5.93,5.93,0,0,0-.81.53l.62-.13c.37-.1.79,0,1.1-.3l0,.2a1.26,1.26,0,0,0,1.21-.23l0,.07-.23.32c.2.15.54,0,.57.41-.37,0-.49.25-.69.48l.17.08a2.25,2.25,0,0,0-.68,1.75c0,.35,0,.7,0,1.08.19-.42.37-.79.52-1.18a1.4,1.4,0,0,0,0-.46l.17.1A1.26,1.26,0,0,0,24.91,46.68Z"/><path class="cls-1" d="M26.58,46.56c-.07.16,0,.27.25.36s.18-.09.21-.17a.23.23,0,0,0-.2-.32A.29.29,0,0,0,26.58,46.56Z"/><path class="cls-1" d="M25.62,46.81c-.05.14,0,.26.14.31s.25,0,.29-.18a1.2,1.2,0,0,0,0-.2C25.85,46.56,25.68,46.58,25.62,46.81Z"/><path class="cls-1" d="M30.12,62.83a3.36,3.36,0,0,1,0-.38,1.23,1.23,0,0,0,0-.29A.38.38,0,0,0,30,62a.57.57,0,0,0-.11-.11l-.15-.07a.59.59,0,0,0,.31-.23.69.69,0,0,0,.13-.37.6.6,0,0,0,0-.22.57.57,0,0,0-.14-.23.63.63,0,0,0-.29-.18,1.26,1.26,0,0,0-.47-.07c-.51,0-1,.07-1.52.14.1.83.21,1.66.32,2.49l.53-.06c0-.33-.07-.65-.1-1l.6,0a.66.66,0,0,1,.25,0,.23.23,0,0,1,.13.07.35.35,0,0,1,.06.14,1.48,1.48,0,0,1,0,.23c0,.13,0,.22,0,.3a1.6,1.6,0,0,0,.05.21h.59V63A.15.15,0,0,1,30.12,62.83Zm-.62-1.3a.61.61,0,0,1-.35.1l-.69,0L28.4,61l.77-.06.21,0a.47.47,0,0,1,.14.08.27.27,0,0,1,.06.1.25.25,0,0,1,0,.12A.28.28,0,0,1,29.5,61.53Z"/><path class="cls-1" d="M26.83,62.84a.58.58,0,0,1-.35.2.65.65,0,0,1-.31,0,.5.5,0,0,1-.25-.13.87.87,0,0,1-.19-.23,1.36,1.36,0,0,1-.13-.3,1.39,1.39,0,0,1-.05-.43.67.67,0,0,1,.1-.31.64.64,0,0,1,.2-.2.67.67,0,0,1,.23-.1.85.85,0,0,1,.31,0,.65.65,0,0,1,.21.06l.12.11.09.14.59-.11a.74.74,0,0,0-.14-.28A.76.76,0,0,0,27,61a1,1,0,0,0-.43-.13,1.73,1.73,0,0,0-1.09.26,1.23,1.23,0,0,0-.36.36,1.18,1.18,0,0,0-.16.49,1.76,1.76,0,0,0,.08.58,1.4,1.4,0,0,0,.62.83,1.28,1.28,0,0,0,.93.1,1.2,1.2,0,0,0,.7-.41,1.26,1.26,0,0,0,.26-.73l-.57.1A.56.56,0,0,1,26.83,62.84Z"/><path class="cls-1" d="M32.45,60.67l-.24,1.64a.53.53,0,0,1-.18.34.6.6,0,0,1-.42.07.49.49,0,0,1-.32-.16.48.48,0,0,1-.11-.39c.05-.54.09-1.08.14-1.62l-.64,0c0,.56-.05,1.11-.08,1.67a.92.92,0,0,0,.18.61A.55.55,0,0,0,31,63a.56.56,0,0,0,.2.11l.21.07.2,0a1.28,1.28,0,0,0,.81-.12.91.91,0,0,0,.4-.66l.3-1.6Z"/><path class="cls-1" d="M33.43,61.3c.48.1,1,.22,1.43.36a14.68,14.68,0,0,0-1.81,1.22l-.09.43a16.41,16.41,0,0,1,1.94.54l.15-.42c-.44-.15-.89-.29-1.34-.4a15.37,15.37,0,0,1,1.89-1.16c0-.13.1-.26.14-.39a19.25,19.25,0,0,0-2.22-.62Z"/><path class="cls-1" d="M29.83,58.68l.54,1,.54-.94a9.53,9.53,0,0,1,4.15-3c.42-.19.84-.36,1.27-.52l.44-.17c4.48-1.78,7.59-5.64,9-11.17A26.29,26.29,0,0,0,46.56,36V22.06h-4l-.1-.12,0-.07-3.74-5.75V13.26H22.05v2.86l-3.86,5.94h-4V36c0,.53-.47,7.74,3.15,13.45l.59.82a13.75,13.75,0,0,0,6.49,4.86C28.53,56.62,29.82,58.67,29.83,58.68ZM46,22.43V35.85s1.06,14.28-9.3,18.48l-.41.16c-.47.17-.89.35-1.29.53-3.28,1.51-4.31,3.25-4.31,3.25V22.43ZM22.57,16.06V13.63h1.78v1.14h1V13.63h1.78v1.14h1V13.63h1.78v1.14h1V13.63h1.78v1.14h1V13.63h1.78v1.14h1V13.63h1.78v2.43l4,6H18.59Zm-4.8,32.87h0c-3.63-5.72-3.07-13.13-3.07-13.13V22.43H30.28V35.22h0v23S29,56,24.58,54.44A13.31,13.31,0,0,1,17.77,48.93Z"/><path class="cls-3" d="M43.79,27.28a.18.18,0,0,0,0,.11A.61.61,0,0,0,43.79,27.28Z"/><path class="cls-1" d="M33.69,29.38c-.06.1-.2.27,0,.41s.3-.06.39-.13c.44-.36,1-.53,1.45-.92.06,0,.11-.11.17-.17a3.22,3.22,0,0,0,.45-1.15,3.78,3.78,0,0,0,.82.36.29.29,0,0,0,.33-.31.42.42,0,0,0,0-.38.43.43,0,0,0-.18-.42,2.05,2.05,0,0,0-.41-.16,4,4,0,0,1-.49-.17l-.15-.07a4.7,4.7,0,0,0-.49-1,6.68,6.68,0,0,0-1.39-1.47c-.12-.09-.33-.31-.47-.18s.06.34.15.46a9,9,0,0,1,1,1.44.62.62,0,0,0-.59,0,1.19,1.19,0,0,0-.33.19l-.21.17L34,26c.12.06.24.15.36.21a1.64,1.64,0,0,1,.27.32h0a3.46,3.46,0,0,1,.27.5,3.44,3.44,0,0,1-.59,1.34C34.1,28.68,33.87,29,33.69,29.38Zm2.44-2.44Z"/><path class="cls-2" d="M18.76,63.6v-1l-.16-.92-.12-.87a2,2,0,0,1,.7.68,1.55,1.55,0,0,0,.49.52c.64-.35,1.52-.49,2.16-.76a6.93,6.93,0,0,1-.63-.58l-.58-.62-.23-.17a1.33,1.33,0,0,1,.51.23,1,1,0,0,0,.87,0,7.62,7.62,0,0,0,1.48,0c.33-.1.42-.52.69-.59l.67-.2.27-.45c.21-.34-.23-.45-.23-.45l-.52.06s-.76,0-.77-.11-.9-.14-.9-.14l-.89-.32-.89-.14-1.59-.33h.16a.94.94,0,0,0,.68-.39,7.41,7.41,0,0,0,1.13-.73c.21-.23.11-.6.29-.78l.43-.48,0-.3c-.18-.09-.35-.18-.53-.29l-.2.16s-.58.36-.64.29-.75.31-.75.31l-.81.16-.74.31-1.51.55a1.69,1.69,0,0,0-.74.79A19.18,19.18,0,0,1,13,53.3a24.6,24.6,0,0,1-1.55-3c-.45-1-.84-2.09-1.22-3.15,0,0,0-.1,0-.15a6.06,6.06,0,0,0,.25-1.56c0-.1,0-.21,0-.31a4.32,4.32,0,0,0,.68.67,4.09,4.09,0,0,0,1.66.82l.16,0,0-.16a3.8,3.8,0,0,0-1.33-1.76c-.12-.1-.25-.19-.38-.28a4.8,4.8,0,0,0,.66,0l.29,0A4.8,4.8,0,0,0,14,43.84l.15-.09L14,43.66A3.47,3.47,0,0,0,12,43.34l-.33,0a5,5,0,0,0-.69.12,5.23,5.23,0,0,0,.52-.53l.16.1,0-.24.18-.24a5,5,0,0,0,.89-1.79l0-.19-.17.07a3.84,3.84,0,0,0-1.29.94,7.79,7.79,0,0,0-.49-1l-.21-.35a2,2,0,0,0-.08-.31l-.06-.2-.1.16a7.09,7.09,0,0,0-.45-.57,7.81,7.81,0,0,0,.81.29,5.2,5.2,0,0,0,1.8.24,2.31,2.31,0,0,0,.76-.16l.15-.07-.13-.11a5.54,5.54,0,0,0-2.05-1.06,5.24,5.24,0,0,0-1.13-.22,4.29,4.29,0,0,0,.51-.28,3.76,3.76,0,0,0,1.62-1.82l.05-.14h-.19a3.37,3.37,0,0,0-.94.2,5.21,5.21,0,0,0-1.55-.86l-.33-.1c0-.19-.08-.36-.12-.52l.19-.1a3,3,0,0,0,.81.37l.2,0-.09-.2a4.56,4.56,0,0,0-.34-.58,3.27,3.27,0,0,0,1-1L11,33.1h-.3a4.76,4.76,0,0,0-1.48.36.46.46,0,0,0-.07-.07c-.15-.14-.31-.28-.48-.41L9,33a4.94,4.94,0,0,0,1.14.05,2.76,2.76,0,0,0,1.05-.24l.16-.08-.15-.1A4.23,4.23,0,0,0,9.44,32,4.69,4.69,0,0,0,8.52,32v-.13l.33-.27a4,4,0,0,0,1.26-1.84l0-.17-.16,0a4.19,4.19,0,0,0-1.6.92,6,6,0,0,0-.6.64,3.47,3.47,0,0,0,.06-.45,4.06,4.06,0,0,0-.28-2.2l-.08-.16-.09.15-.09.18a6.13,6.13,0,0,0-1.5,1.54l0,.05c-.16-.1-.3-.19-.44-.26a4.48,4.48,0,0,0-.59-2.1l-.09-.14-.08.15a5.3,5.3,0,0,0-.47,2.21,6.4,6.4,0,0,0,.16,1.48A6.85,6.85,0,0,0,3.6,31a4.8,4.8,0,0,0-2.44-1.24H1l.07.16a5.31,5.31,0,0,0,1.39,1.81,6.06,6.06,0,0,0,.95.67H2.52a4.82,4.82,0,0,0-2.37.7L0,33.16l.17.07a5.5,5.5,0,0,0,2.23.36h.21a7.5,7.5,0,0,0,1-.15l-.24.3a7,7,0,0,0-.58.88,2.32,2.32,0,0,0-.6-.22l-.15,0,0,.16a3.06,3.06,0,0,0,.35.86,3,3,0,0,0-.19.79v.19l.16-.08a4.39,4.39,0,0,0,.45-.3c.1.13.2.24.3.35a5.8,5.8,0,0,0,1.08.91,7.94,7.94,0,0,0-1-.08,8.58,8.58,0,0,0-.88,0,5.6,5.6,0,0,0-2.11.49l-.19.1.2.09a6.86,6.86,0,0,0,2.44.48c.26,0,.53,0,.78,0l.47,0-.52.32a4.87,4.87,0,0,0-1.85,2l-.07.18.18,0a6.66,6.66,0,0,0,2.23-1c.19-.13.38-.27.55-.41A3.89,3.89,0,0,0,4.83,41a3.6,3.6,0,0,0,.29.55l-.29-.17A5.41,5.41,0,0,0,2.4,40.6H2.21l.11.16A4.55,4.55,0,0,0,3.81,42a6.09,6.09,0,0,0,1.12.48,6.71,6.71,0,0,0-.76.13,5.21,5.21,0,0,0-2.35,1l-.16.14.21,0a6,6,0,0,0,1.14,0,10,10,0,0,0,1.06-.15,7.45,7.45,0,0,0,1-.3l-.29.33a3.41,3.41,0,0,0-.92,2v.16L4,45.82a5.19,5.19,0,0,0,1.54-1.27,4.51,4.51,0,0,0,.57-.85c0,.1.07.19.1.29a4.49,4.49,0,0,0,.26.54L6,44.36l-.16.55a2.7,2.7,0,0,1,.73.42c.23.18.45.39.69.59a8.26,8.26,0,0,0,.76.64,6.52,6.52,0,0,0,1,.63c0,.13.07.25.1.38a27.92,27.92,0,0,0,1.19,3.32A23.93,23.93,0,0,0,11.84,54,20.47,20.47,0,0,0,14,56.86a17.19,17.19,0,0,0,1.8,1.72h0a1.65,1.65,0,0,0-.49-.35l-.47,0s-.85.3-.93.66a3.22,3.22,0,0,1-.55.93,2.45,2.45,0,0,1-.9.77,1.11,1.11,0,0,0-.52.72A8.67,8.67,0,0,0,11,62.61c-.1.34.17.66.07.93s-.23.69-.23.69l.2.49c.15.38.49.06.49.06l.25-.48s.44-.64.53-.59S13,63,13,63l.76-.57.54-.59a1.58,1.58,0,0,1-.17.29,1.12,1.12,0,0,0-.08.9,8.83,8.83,0,0,0-.08,1.54c.08.34.47.47.52.76l.15.71.41.32c.32.24.45-.21.45-.21l0-.55s.05-.78.15-.79.2-.93.2-.93l.37-.89.19-.91.14-.53a2.34,2.34,0,0,1,0,1.1,1.13,1.13,0,0,0,.27.85,11.3,11.3,0,0,0,.44,1.33,15.05,15.05,0,0,1,1.6-1C18.8,63.74,18.76,63.6,18.76,63.6ZM10.65,42.21l.09.09-.13.19C10.62,42.4,10.64,42.3,10.65,42.21ZM9.42,36.93a4.86,4.86,0,0,0,0-.54,6.18,6.18,0,0,0,1,.18l-.16.09a4.55,4.55,0,0,0-.8.65l0-.06C9.41,37.14,9.42,37,9.42,36.93ZM8.2,33.7h0l.15.14.05.06c-.14.08-.27.17-.4.26C8.07,34,8.14,33.86,8.2,33.7Zm-.86-1.1.06.1a3.35,3.35,0,0,0-.15.35A4.28,4.28,0,0,0,7,34c-.06-.1-.12-.18-.18-.27a2.14,2.14,0,0,0-.13-.19,2,2,0,0,1,.07-.26,2.46,2.46,0,0,1,.36-.68l.06-.07Zm-.21,2.8h0a1.34,1.34,0,0,0-.07.18s0,.07,0,.11,0-.12,0-.18l-.11-.3Zm-.29-4.87a5.4,5.4,0,0,0,0,.7L6.67,31,6.58,31C6.67,30.81,6.76,30.67,6.84,30.53ZM6,31.74a4.08,4.08,0,0,0,1.11.76l0,.06a2.36,2.36,0,0,0-.39.69l-.06.2a4.85,4.85,0,0,0-1.16-1.12A6.36,6.36,0,0,0,6,31.74Zm-.91,1a.14.14,0,0,1,0,.07l0,0A.43.43,0,0,0,5.08,32.73Zm-.19,6.49v.2a2.82,2.82,0,0,0-.29-.24h0l.34-.31C4.9,39,4.89,39.1,4.89,39.22Zm.22-5.95L5,33.42a4.62,4.62,0,0,0-.33,2,5.28,5.28,0,0,0,.09.81c-.09-.11-.19-.23-.3-.34a5.89,5.89,0,0,0-.79-.71c.12-.13.23-.27.34-.41a5.57,5.57,0,0,0,1-1.89l.07,0h0A4.54,4.54,0,0,0,5.7,34a5.12,5.12,0,0,0,.92,1c.17.75.3,1.51.43,2.27,0,.17,0,.33.08.5a2.55,2.55,0,0,0-.66-.33,1.6,1.6,0,0,0-.78-.06,5.51,5.51,0,0,0,.19-1.68,4.29,4.29,0,0,0-.67-2.32ZM5.94,41a4.89,4.89,0,0,0,.23-1.4,4,4,0,0,0-.5-2.09v0H6a2,2,0,0,1,.49.1,4.7,4.7,0,0,1,.7.29c.14,1,.29,1.92.46,2.87.07.41.14.82.22,1.23a7.15,7.15,0,0,0-1.53.15A4.93,4.93,0,0,0,5.94,41Zm1.77,4.11h0A3.78,3.78,0,0,0,7.42,44a3.84,3.84,0,0,0-1.1-1.59,1.1,1.1,0,0,0,0-.18L7.82,42c.13.73.27,1.46.41,2.19l.24,1.17A4.81,4.81,0,0,1,7.71,45.07Zm.75-4.38c0,.24,0,.48,0,.71-.06-.28-.13-.55-.19-.83-.11-.5-.22-1-.34-1.48L8,39l.22-.12a.68.68,0,0,1,.42-.11A7.46,7.46,0,0,0,8.46,40.69Zm.22-1.9a.33.33,0,0,0-.22,0,.73.73,0,0,0-.25.08L7.94,39c-.14-.61-.3-1.22-.46-1.83-.11-.42-.24-.84-.37-1.25,0-.12,0-.23,0-.34a.51.51,0,0,1,0-.17h0A5.84,5.84,0,0,0,8,36.86a3.92,3.92,0,0,0,.37.46,5.26,5.26,0,0,0,.33,1.44Zm-.2-3.72-.08,0,.09,0Zm1,9.91c-.11-.35-.21-.7-.31-1h.35l.3,0A4.57,4.57,0,0,0,9.45,45Zm.37-1.16H9.49l-.37,0a2.17,2.17,0,0,0-.07-.24h0l.09-.21a6.43,6.43,0,0,0,.33-2.17c0-.28,0-.56,0-.83l.18.34.27.44a7.55,7.55,0,0,0-.13,1A6.26,6.26,0,0,0,9.82,43.82Zm7.55,14.62a1.37,1.37,0,0,0-.26.2H17l.14-.21a.58.58,0,0,0,.28-.09A.29.29,0,0,1,17.37,58.44Z"/><path class="cls-4" d="M47.15,37.59v-.15s0,.08,0,.12Z"/><path class="cls-2" d="M49.7,54.81a2.64,2.64,0,0,0-.49.29c.24-.3.48-.59.71-.9a19.61,19.61,0,0,0,2.3-3.89c.31-.69.58-1.39.83-2.09s.43-1.43.61-2.15.3-1.36.42-2a.4.4,0,0,0,.15-.1L56,42.15a.57.57,0,0,0,0-.8.56.56,0,0,0-.8,0l-.87.86c0-.17.05-.34.07-.51a43,43,0,0,0,.18-5.07,2.27,2.27,0,0,0,2.51-.07,2.73,2.73,0,0,0,1.28-2.14,2.63,2.63,0,0,0-2.73.16,3.31,3.31,0,0,0-1.09,1.18c0-.94-.11-1.89-.2-2.83-.11,1.47-.24,2.94-.41,4.4L52,36.47a.64.64,0,0,0-.77.22,1.89,1.89,0,0,0-1.65.26,2.16,2.16,0,0,0-.9,1.18.71.71,0,0,1,0,.14,1.55,1.55,0,0,0,1.94.07,1.94,1.94,0,0,0,.77-1l.06,0,2.23,1,.11,0c-.13,1-.3,2.07-.49,3.09a38.05,38.05,0,0,1-1,4.15c-.2.68-.44,1.35-.68,2s-.52,1.31-.83,1.94c-.06.15-.14.29-.21.43a2.72,2.72,0,0,0-.17-.53A2.63,2.63,0,0,0,48.22,48a3,3,0,0,0,.93,4.47l-.53.72a18.94,18.94,0,0,1-2.91,3,25.72,25.72,0,0,1-3.5,2.4l-1,.56-1,.62a10.6,10.6,0,0,0-1,.74,5.49,5.49,0,0,0-1,1c.94.2,1.77.43,2.47.64a1,1,0,0,1,.09-.21,2.48,2.48,0,0,1,.57-.71,6.59,6.59,0,0,1,.8-.64l.88-.6a42.91,42.91,0,0,0,3.69-2.51c.47-.38.93-.79,1.37-1.22a3.27,3.27,0,0,0-.28.64,3,3,0,0,0,5.41-1.63A3.45,3.45,0,0,0,49.7,54.81Z"/><path class="cls-2" d="M55.89,37.79a3.21,3.21,0,0,0-1.33,1.83,2.21,2.21,0,0,0,2.8.14,2.74,2.74,0,0,0,1.26-2.15A2.61,2.61,0,0,0,55.89,37.79Z"/><path class="cls-2" d="M54.45,33.54a2.22,2.22,0,0,0,2.81.06,2.74,2.74,0,0,0,1.19-2.18,2.59,2.59,0,0,0-2.72.26A3.14,3.14,0,0,0,54.45,33.54Z"/><path class="cls-2" d="M56.33,29.86a2.77,2.77,0,0,0-1.08-2.25A2.61,2.61,0,0,0,53.88,30a3.13,3.13,0,0,0,.76,2.12A2.22,2.22,0,0,0,56.33,29.86Z"/><path class="cls-2" d="M51.27,36.27a2.21,2.21,0,0,0,.89-2.66,2.72,2.72,0,0,0-1.73-1.78,2.59,2.59,0,0,0-.55,2.67A3.12,3.12,0,0,0,51.27,36.27Z"/><path class="cls-2" d="M54,33.91a2.21,2.21,0,0,0-.2-2.8,2.74,2.74,0,0,0-2.29-1A2.6,2.6,0,0,0,52,32.82,3.19,3.19,0,0,0,54,33.91Z"/><path class="cls-2" d="M51.69,41.19l.28-.06a.89.89,0,0,0,0,1.58c.6.17.91-.43.57-.5a.3.3,0,0,1-.12-.57c.21-.14.21-.34.08-.45a.76.76,0,0,0,.41.05c.31-.09.43-.33.3-.86a16.43,16.43,0,0,0-.43-1.59c-.26-1.1-1.6-1-1.59.05A11.88,11.88,0,0,1,51,40.72.47.47,0,0,0,51.69,41.19Z"/><path class="cls-2" d="M49.19,42.21a1,1,0,0,1,.29,0,.89.89,0,0,0-.3,1.55c.56.27,1-.25.66-.38a.31.31,0,0,1,0-.59c.23-.1.27-.29.17-.43a.61.61,0,0,0,.39.13c.32,0,.49-.24.45-.79a13.85,13.85,0,0,0-.12-1.64c-.05-1.13-1.4-1.24-1.57-.25a12,12,0,0,1-.54,1.82S48.45,42.29,49.19,42.21Z"/><path class="cls-2" d="M58.83,45a.3.3,0,0,1-.56-.18c0-.24-.18-.35-.35-.29a.74.74,0,0,0,.26-.33c.07-.31-.08-.54-.6-.68a12.25,12.25,0,0,0-1.6-.44c-1.07-.32-1.63.92-.75,1.41a12,12,0,0,1,1.54,1.1s.58.37.75-.36a1.71,1.71,0,0,1,.09-.27.89.89,0,0,0,1.37.79C59.42,45.35,59.06,44.78,58.83,45Z"/><path class="cls-2" d="M57.77,48a.31.31,0,0,1-.47-.36c.07-.24-.06-.39-.23-.39a.74.74,0,0,0,.35-.23c.17-.26.1-.53-.35-.84a12.43,12.43,0,0,0-1.36-.93c-.92-.65-1.84.34-1.17,1.09a11.35,11.35,0,0,1,1.09,1.54.48.48,0,0,0,.83-.09,1.72,1.72,0,0,1,.17-.23c-.35.62.48,1.45,1,1.19S58.07,47.86,57.77,48Z"/><path class="cls-2" d="M54.89,48.94l.25,0c.66-.08.4-.58.4-.58A8.65,8.65,0,0,1,54.72,47a.7.7,0,0,0-1.31.5,9.4,9.4,0,0,0,.22,1.32c.07.44.26.58.54.54a.77.77,0,0,0,.32-.19c-.07.13,0,.28.22.32s.35.3.1.46.21.5.64.18S55.53,48.89,54.89,48.94Z"/><path class="cls-2" d="M44.44,67.65c-3.38-1.77-5.37-.77-5.37-.77s.14-.87.28-1.94a29.6,29.6,0,0,0-17.9,0c.15,1.17.31,2.16.31,2.16s-2-1-5.37.75a6.36,6.36,0,0,1,1.27-2,1.68,1.68,0,0,1,.26-.24c0-.11-.29-.2-.65-.26a14.73,14.73,0,0,0-1.58-.14s.29-.18.76-.41a16.49,16.49,0,0,1,2-.87l.3-.1V62.13l.8-.32c.8-.32,1.6-.59,2.39-.83a28.85,28.85,0,0,1,8.2-1.13l.78,0a31.76,31.76,0,0,1,6,.74c.94.2,1.77.43,2.47.64a20.76,20.76,0,0,1,2.45.88v1.31a17.77,17.77,0,0,1,3.34,1.48s-2.18.08-2.24.41A6.18,6.18,0,0,1,44.44,67.65Z"/><polygon class="cls-2" points="38.17 16.06 38.17 13.63 36.39 13.63 36.39 14.77 35.41 14.77 35.41 13.63 33.63 13.63 33.63 14.77 32.64 14.77 32.64 13.63 30.86 13.63 30.86 14.77 29.88 14.77 29.88 13.63 28.1 13.63 28.1 14.77 27.11 14.77 27.11 13.63 25.33 13.63 25.33 14.77 24.35 14.77 24.35 13.63 22.57 13.63 22.57 16.06 18.59 22.04 42.15 22.04 38.17 16.06"/><path class="cls-2" d="M30.73,30.86S32,29.43,33,30.7c.83-1.29,1.71.45,1.71.45S35,29.89,36,30.49c.1-2.45,2.38-.95,2.38-.95s-.21-1.42,1.33-.8c.56-2.76,2.58-1.83,2.71-1.61.25-1.34,1.51-.65,1.36.15.17-.33,1.21,0,1.06.78C45.09,26.81,46,27,46,27V22.43H30.73Zm3.89-4.36h0a1.64,1.64,0,0,0-.27-.32c-.12-.06-.24-.15-.36-.21l-.28-.14.21-.17a1.19,1.19,0,0,1,.33-.19.62.62,0,0,1,.59,0,9,9,0,0,0-1-1.44c-.09-.12-.29-.33-.15-.46s.35.09.47.18a6.68,6.68,0,0,1,1.39,1.47,4.7,4.7,0,0,1,.49,1l.15.07a4,4,0,0,0,.49.17,2.05,2.05,0,0,1,.41.16.43.43,0,0,1,.18.42.42.42,0,0,1,0,.38.29.29,0,0,1-.33.31,3.78,3.78,0,0,1-.82-.36,3.22,3.22,0,0,1-.45,1.15c-.06.06-.11.12-.17.17-.44.39-1,.56-1.45.92-.09.07-.21.26-.39.13s0-.31,0-.41c.18-.35.41-.7.61-1A3.44,3.44,0,0,0,34.89,27,3.46,3.46,0,0,0,34.62,26.5Z"/><path class="cls-2" d="M46,35.85V32.26H30.73v26s1-1.74,4.31-3.25a2.34,2.34,0,0,1,0-1.93A1.62,1.62,0,0,0,34.8,51s1-.76-.18-2c.51-.47,1.13-1-.54-1.7.18-.23.7-.5-.2-.95a1,1,0,0,1,0-1.79c.48-.31-.13-1.33-.86-1.21-1.21.22-1.29-1.34-1.29-1.34s-1.59-.65-.15-1.61c-.42-1.43,1.11-1.3,1.11-1.3s.8,0-.09-1.08c-.79-1.32.77-1.81.77-1.81s1.28-.34.3-1.15.27-1.43.27-1.43-1-.52-.48-1.06l.12-.12h4.07c.43.47,0,1.23-.64,1.52,1.27.77.35,1,.51,1.45a1.85,1.85,0,0,0,1.52.58s.63.42.54.7c2.48.15.49,1.7.45,1.64.43.54,0,.85,0,.85s-1.53.87-1.44,1.14.41.29.27.53a2.31,2.31,0,0,1-.18,1.73s.39.17.15.7c.35.58-1.34,1.3-1.34,1.3s1.74.93-.48,3.07c-.2.06.62,1.61-.3,2.32.18.26.76.32,0,1.15,0,.21.33.55.13,1.11a1.78,1.78,0,0,0-.14,2.13C47.1,50.13,46,35.85,46,35.85Zm-1.25,1.8c0,.14-.09.28-.23.24A2.1,2.1,0,0,1,44,37.6a2.77,2.77,0,0,1-.32.93l-.12.14c-.31.31-.71.45-1,.74-.07.06-.15.21-.27.1s0-.24,0-.32c.13-.29.29-.57.44-.84a3,3,0,0,0,.41-1.09,2,2,0,0,0-.19-.39h0a1.64,1.64,0,0,0-.2-.26c-.08-.05-.17-.12-.25-.16l-.2-.12.15-.13a.87.87,0,0,1,.23-.16.42.42,0,0,1,.42,0,7.3,7.3,0,0,0-.69-1.15c-.06-.1-.21-.27-.11-.38s.25.07.33.15a5.18,5.18,0,0,1,1,1.19,3.57,3.57,0,0,1,.34.81l.11,0a2.44,2.44,0,0,0,.34.14,2.55,2.55,0,0,1,.29.13.36.36,0,0,1,.13.34A.37.37,0,0,1,44.79,37.65Z"/><path class="cls-1" d="M44.85,28.06C45,27.3,44,27,43.79,27.28a.61.61,0,0,1,0,.11.18.18,0,0,1,0-.11c.15-.8-1.11-1.49-1.36-.15-.13-.22-2.15-1.15-2.71,1.61-1.54-.62-1.33.8-1.33.8S36.11,28,36,30.49c-1-.6-1.35.66-1.35.66s-.88-1.74-1.71-.45c-1-1.27-2.22.16-2.22.16v1.4H46V27S45.09,26.81,44.85,28.06Zm-1.64,1.71a2,2,0,0,1-.55,0,2.1,2.1,0,0,1,0,.79.58.58,0,0,1,0,.14c-.16.33-.45.56-.62.88,0,.06-.06.2-.19.15s-.09-.17-.08-.24c0-.26.08-.51.12-.76a2.47,2.47,0,0,0,0-.94,1.49,1.49,0,0,0-.27-.23h0a1.71,1.71,0,0,0-.23-.13l-.25,0-.19,0,.08-.15a.85.85,0,0,1,.14-.19.37.37,0,0,1,.35-.11,5.38,5.38,0,0,0-.88-.64c-.08-.06-.24-.14-.19-.25s.22,0,.31,0a4.23,4.23,0,0,1,1.12.57,3.45,3.45,0,0,1,.51.5h.41a1.22,1.22,0,0,1,.27,0,.28.28,0,0,1,.2.21.3.3,0,0,1,.08.23A.19.19,0,0,1,43.21,29.77Z"/><path class="cls-2" d="M43.25,29.28a.28.28,0,0,0-.2-.21,1.22,1.22,0,0,0-.27,0h-.41a3.45,3.45,0,0,0-.51-.5A4.23,4.23,0,0,0,40.74,28c-.09,0-.26-.11-.31,0s.11.19.19.25a5.38,5.38,0,0,1,.88.64.37.37,0,0,0-.35.11.85.85,0,0,0-.14.19l-.08.15.19,0,.25,0a1.71,1.71,0,0,1,.23.13h0a1.49,1.49,0,0,1,.27.23,2.47,2.47,0,0,1,0,.94c0,.25-.1.5-.12.76,0,.07,0,.2.08.24s.15-.09.19-.15c.17-.32.46-.55.62-.88a.58.58,0,0,0,0-.14,2.1,2.1,0,0,0,0-.79,2,2,0,0,0,.55,0,.19.19,0,0,0,.12-.26A.3.3,0,0,0,43.25,29.28Z"/><path class="cls-5" d="M36.13,26.94Z"/><path class="cls-6" d="M29.07,25.56h0Z"/><path class="cls-2" d="M21.9,29.9a1.72,1.72,0,1,0,1.72-1.71A1.73,1.73,0,0,0,21.9,29.9Z"/><path class="cls-2" d="M25.54,29.59v.64l1.06-.3v0Z"/><path class="cls-2" d="M23.59,32.89h.05l.3-1.06h-.65C23.39,32.2,23.49,32.54,23.59,32.89Z"/><path class="cls-2" d="M21.48,32l0,0,.94-.52L22,31.06C21.84,31.38,21.66,31.7,21.48,32Z"/><path class="cls-2" d="M21.69,29.59l-1.06.3v0l1.06.3Z"/><path class="cls-2" d="M25.74,27.81l0,0-.94.52.44.45Z"/><path class="cls-2" d="M22.46,28.31l-.94-.53,0,0,.52.93Z"/><path class="cls-2" d="M24.77,31.51l.95.53,0,0-.52-.94Z"/><path class="cls-2" d="M23.64,26.93h-.05L23.29,28h.65Z"/><path class="cls-4" d="M30.28,35.63v-.22l-.09.22Z"/><path class="cls-2" d="M14.68,22.43V35.81s-.56,7.41,3.07,13.12c0,0,0,0,0,0l.09-.29C14.57,43,15.09,36,15.09,36V34.5H29.91v1.6a6.76,6.76,0,0,1-1.88,3c-.62.5-1.36.82-2,1.31a3.76,3.76,0,0,0-1.17,1.9c-.68,1.81-2.11,2.34-3.84,2.8a3.53,3.53,0,0,0-2.17,1.26,7,7,0,0,0-1,2.19l-.09.29s0,0,0,0h0a13.27,13.27,0,0,0,6.81,5.51c4.39,1.59,5.7,3.78,5.7,3.78V35.63h0v-.41h0V34.5h0v-.11h0v-12Zm14.37,3.13Zm.86,8.71H20.09l0-1.29-.21-.25a.5.5,0,0,1,.07-.45c.19-.25,0-.7,0-.7a7.23,7.23,0,0,1-.82-.69,2.28,2.28,0,0,1-.17-.78s.16-.09.18-.17a1.22,1.22,0,0,0-.12-.53,1.32,1.32,0,0,1,.05-1.09s.79-1,.84-1a2.59,2.59,0,0,0,1-1.68l0-.91s.56-.29.69-.62a4.84,4.84,0,0,0,.28-1.38c0-.06.2-.05.25,0s.27.24.27.24a.68.68,0,0,0,.5.44c.25.07,1,.21,1,.21s1.1.5,1.23,1.19c0,.1,0,.37,0,.43.36.93.88.87,1.14,1.1s1,.43,1.25,1.28c.16.57,0,1.85.34,2.24.07.08.27-.09.27-.09l1.32-.82a4.08,4.08,0,0,0-.24.84c0,.2.15.59.08.79-.15.43-1.06,1.34-.86,1.76,0,.1.35,0,.35,0s.69-.37.91.71c0,.06.06.21.12.39ZM28.42,44.42l.08.23c-.32.13-.6.35-.95.16,0,0-.1,0-.18,0l.32.27-.4.32a3,3,0,0,1,.5,0,2.56,2.56,0,0,1,.43.17l-.15.17a1.62,1.62,0,0,1,1.14.92A4.92,4.92,0,0,1,29.76,48c-.28-.48-.93-.64-1.07-1.25l-.14.19a2.87,2.87,0,0,0-.34-.18.5.5,0,0,1-.36-.36c0-.09-.1-.17-.17-.29l-.05.48-1.3-.36.15.54-.2,0c.44.12.29.5.44.76l-.24,0c.49.09.27.52.42.77l-.29,0c.46,0,.33.41.42.68h-.28c.49.11.32.51.42.83l-.44-.11a1.31,1.31,0,0,0,.33.21c.06,0,.13.08.14.13.05.22.07.44.11.69l-.6-.13-.05,0c.44.14.88.28.68.89l-.66-.13,0,.06.77.28a1.29,1.29,0,0,0,0,.28c0,.21-.09.26-.26.23s-.46-.12-.68-.19-.19-.17-.17-.33A14.48,14.48,0,0,0,26.13,47a2,2,0,0,0-.07-.23h0a.65.65,0,0,1,0,.2.22.22,0,0,1-.3.18c-.16,0-.18-.17-.14-.31s.24-.25.46-.07h0l0-.4-.9.69L25,46.69h-.07a1.26,1.26,0,0,1-.45,1.1l-.16-.1a1.39,1.39,0,0,1,0,.46c-.14.39-.33.76-.51,1.18,0-.38,0-.73,0-1.08a2.24,2.24,0,0,1,.67-1.75l-.16-.08c.19-.23.32-.52.68-.48,0-.37-.37-.26-.56-.41l.22-.32,0-.07a1.27,1.27,0,0,1-1.21.23l0-.2c-.31.32-.74.2-1.1.3l-.62.13a5.93,5.93,0,0,1,.81-.53c.26-.13.53-.26.81-.37a1.58,1.58,0,0,1,1.21-.07h.07v-.19c.3.08.63,0,.76.4l.14-.19.49.61c.17-.24.34-.47.52-.7l.17.14c0-.4.28-.47.54-.6l0,.18a3,3,0,0,1,2.79.13C29.49,44.29,29,44.69,28.42,44.42ZM27,46.75c0,.08-.14.13-.2.17s-.33-.2-.26-.36a.3.3,0,0,1,.27-.13A.22.22,0,0,1,27,46.75Z"/><g class="cls-7"><g id="g14"><path id="path20" class="cls-8" d="M908.52,44.64l-3.48-1a5.5,5.5,0,0,1-3.13-7.81,5.62,5.62,0,0,1,5-2.91h6.63v2.59h-4.74a1.69,1.69,0,0,0-1.72,1.72,1.59,1.59,0,0,0,1.11,1.51l3.33,1.11c2.38.72,3.59,3.15,3.53,5.85a6.08,6.08,0,0,1-6.12,5.86h-7.3V49H908A2.13,2.13,0,0,0,910,46.8a2.08,2.08,0,0,0-1.43-2m-31.9-.12-3.47-1a5.53,5.53,0,0,1-3-7.81,5.67,5.67,0,0,1,5-2.91H882v2.59h-4.74a1.7,1.7,0,0,0-1.72,1.72,1.6,1.6,0,0,0,1.11,1.51l3.33,1.11c2.29.73,3.5,3.17,3.43,5.89a6.05,6.05,0,0,1-6.09,5.82H870V49h6.18a2.13,2.13,0,0,0,1.94-2.15,2.17,2.17,0,0,0-1.54-2M892.52,52c-4.2,0-7.46-3-7.46-6.64V32.9h5.69V46a3.16,3.16,0,0,0,3.36,3,3.23,3.23,0,0,0,3.37-3V32.9h2.59V45.4c0,3.67-3.27,6.64-7.36,6.64"/><path id="path22" class="cls-8" d="M956,53a133.45,133.45,0,0,1-17.93-.09,81.43,81.43,0,0,0,1.58,16.26h18c-.86-5.26-1.54-13.77-1.65-16.17M925.2,32.39c1.21.1,11.84,1,12.54,1,0,0,16.82,17.1,16.82,17.1h21.61V32.39Zm14.22-1h18.12V13.75H939.42Zm.23,4.88h0l-2.36-2.4a159.63,159.63,0,0,1-16.51-1.59V50.35c16.25,1.6,24.77,2,34.29,1.71h.15L939.65,36.23ZM956,51.54h2.07V65.62a116.53,116.53,0,0,1-1-12.78c-.26-.29-1.21-1.3-1.21-1.3"/></g></g><path class="cls-2" d="M307.41,41.88,310.68,38A11.56,11.56,0,0,0,318.2,41c2.27,0,3.64-.9,3.64-2.38v-.07c0-1.41-.86-2.13-5.08-3.21-5.07-1.29-8.35-2.7-8.35-7.7v-.07c0-4.57,3.67-7.6,8.82-7.6a14.59,14.59,0,0,1,9.36,3.21l-2.88,4.17a11.88,11.88,0,0,0-6.55-2.48c-2.12,0-3.24,1-3.24,2.2v.07c0,1.65,1.08,2.19,5.44,3.31,5.11,1.33,8,3.17,8,7.56v.07c0,5-3.82,7.81-9.25,7.81A16,16,0,0,1,307.41,41.88Z"/><path class="cls-2" d="M332.17,20.35h19v4.94h-13.5V30.4h11.88v4.93H337.68v5.29h13.68v4.93H332.17Z"/><path class="cls-2" d="M355.18,33V33a12.81,12.81,0,0,1,13.14-13,13,13,0,0,1,9.93,3.89l-3.53,4.07A9.26,9.26,0,0,0,368.28,25C364,25,361,28.56,361,32.88V33c0,4.32,3,7.92,7.31,7.92,2.88,0,4.64-1.15,6.62-2.95l3.53,3.56A12.85,12.85,0,0,1,368.1,46,12.71,12.71,0,0,1,355.18,33Z"/><path class="cls-2" d="M382.86,20.35h11.52c3.2,0,5.69.9,7.34,2.56a7.87,7.87,0,0,1,2.16,5.76v.07a7.82,7.82,0,0,1-5.4,7.81l6.16,9h-6.48l-5.4-8.06H388.4v8.06h-5.54ZM394,32.59c2.7,0,4.25-1.44,4.25-3.56V29c0-2.38-1.66-3.6-4.36-3.6H388.4v7.23Z"/><path class="cls-2" d="M408.89,20.35h19v4.94H414.4V30.4h11.87v4.93H414.4v5.29h13.67v4.93H408.89Z"/><path class="cls-2" d="M438.88,25.47h-7.67V20.35h20.88v5.12h-7.67V45.55h-5.54Z"/><path class="cls-2" d="M461.74,20.17h5.11l10.8,25.38h-5.8l-2.3-5.65H458.89l-2.3,5.65h-5.65ZM467.57,35l-3.35-8.17L460.87,35Z"/><path class="cls-2" d="M481.54,20.35h11.51c3.21,0,5.69.9,7.35,2.56a7.91,7.91,0,0,1,2.16,5.76v.07a7.83,7.83,0,0,1-5.4,7.81l6.15,9h-6.48l-5.4-8.06h-4.35v8.06h-5.54Zm11.15,12.24c2.7,0,4.25-1.44,4.25-3.56V29c0-2.38-1.65-3.6-4.35-3.6h-5.51v7.23Z"/><path class="cls-2" d="M507.82,20.35h5.54v25.2h-5.54Z"/><path class="cls-2" d="M528.3,20.17h5.11l10.8,25.38h-5.8l-2.3-5.65H525.46l-2.31,5.65H517.5ZM534.13,35l-3.35-8.17L527.43,35Z"/><path class="cls-2" d="M557.32,20.35H567a22.33,22.33,0,0,1,6.57.88,13,13,0,0,1,4.7,2.51,10.17,10.17,0,0,1,2.81,3.9,13.43,13.43,0,0,1,.94,5.1v.07A13.37,13.37,0,0,1,581,38a10.6,10.6,0,0,1-2.88,4,13.54,13.54,0,0,1-4.79,2.63,21.6,21.6,0,0,1-6.68.93h-9.35Zm9.82,17.86A7.78,7.78,0,0,0,571.77,37a4.59,4.59,0,0,0,1.71-4v-.08a4.57,4.57,0,0,0-1.71-4,7.71,7.71,0,0,0-4.63-1.24h-1.4V38.21Z"/><path class="cls-2" d="M584.28,20.35h21.49v6.91H592.56v2.56h12.31V35.9H592.56v2.74H606v6.91H584.28Z"/><path class="cls-2" d="M628.2,46A23.74,23.74,0,0,1,621,45a15.89,15.89,0,0,1-5.75-3.19l4.5-5.36a13.62,13.62,0,0,0,4.32,2.27,15.81,15.81,0,0,0,4.5.68,3.57,3.57,0,0,0,1.66-.29.86.86,0,0,0,.5-.79v-.07c0-.36-.24-.66-.73-.9a13.27,13.27,0,0,0-2.76-.76c-1.41-.29-2.76-.62-4-1a14,14,0,0,1-3.38-1.47,7.14,7.14,0,0,1-2.32-2.25,6.09,6.09,0,0,1-.87-3.37v-.07a8.14,8.14,0,0,1,.7-3.35,7.79,7.79,0,0,1,2.06-2.7,9.57,9.57,0,0,1,3.35-1.8,14.89,14.89,0,0,1,4.58-.65,21.42,21.42,0,0,1,6.43.87,15.2,15.2,0,0,1,5,2.59L634.61,29a12.4,12.4,0,0,0-3.8-1.89,13.11,13.11,0,0,0-3.76-.6,2.64,2.64,0,0,0-1.39.29.87.87,0,0,0-.45.76v.07a.89.89,0,0,0,.14.47,1.5,1.5,0,0,0,.53.41,5.41,5.41,0,0,0,1,.38c.43.12,1,.24,1.66.36a39,39,0,0,1,4.39,1,12.88,12.88,0,0,1,3.4,1.57,7,7,0,0,1,2.2,2.29,6.35,6.35,0,0,1,.77,3.23v.08a7.8,7.8,0,0,1-.79,3.56,7.58,7.58,0,0,1-2.23,2.68,10.44,10.44,0,0,1-3.51,1.7A16.85,16.85,0,0,1,628.2,46Z"/><path class="cls-2" d="M650.05,20.17h8.35L669,45.55h-9.14l-1.33-3.38h-8.82l-1.3,3.38h-9Zm6.41,16-2.31-6.12-2.3,6.12Z"/><path class="cls-2" d="M682.23,46.06a18.29,18.29,0,0,1-5.09-.67,10,10,0,0,1-3.91-2.11,9.47,9.47,0,0,1-2.5-3.67,14.54,14.54,0,0,1-.88-5.36V20.35h8.57V34.14a4.53,4.53,0,0,0,1.1,3.4,3.83,3.83,0,0,0,2.79,1.06,4,4,0,0,0,2.8-1,4.28,4.28,0,0,0,1.08-3.29v-14h8.57V34.07a15,15,0,0,1-.9,5.51,9.41,9.41,0,0,1-2.54,3.7,10.06,10.06,0,0,1-4,2.11A18.63,18.63,0,0,1,682.23,46.06Zm.4-33.88,8,2.05-5.94,4.86h-5.48Z"/><path class="cls-2" d="M697.43,20.35h9.64a22.33,22.33,0,0,1,6.57.88,13,13,0,0,1,4.7,2.51,10.17,10.17,0,0,1,2.81,3.9,13.43,13.43,0,0,1,.93,5.1v.07a13.37,13.37,0,0,1-1,5.14,10.5,10.5,0,0,1-2.88,4,13.54,13.54,0,0,1-4.79,2.63,21.57,21.57,0,0,1-6.67.93h-9.36Zm9.82,17.86A7.78,7.78,0,0,0,711.88,37a4.59,4.59,0,0,0,1.71-4v-.08a4.57,4.57,0,0,0-1.71-4,7.71,7.71,0,0,0-4.63-1.24h-1.4V38.21Z"/><path class="cls-2" d="M724.39,20.35h21.49v6.91H732.67v2.56H745V35.9H732.67v2.74h13.39v6.91H724.39Z"/><path class="cls-2" d="M350,55.81h1.92v7h4.36v1.75H350Z"/><path class="cls-2" d="M363.82,55.75h1.77l3.75,8.81h-2l-.8-2h-3.7l-.8,2h-2Zm2,5.15-1.16-2.84-1.16,2.84Z"/><path class="cls-2" d="M373.82,55.81h4.06a3.17,3.17,0,0,1,2.29.78,2,2,0,0,1,.6,1.49v0A2,2,0,0,1,379.62,60a2.13,2.13,0,0,1,1.63,2.15v0c0,1.6-1.29,2.4-3.27,2.4h-4.16Zm3.65,3.54c.85,0,1.39-.27,1.39-.92v0c0-.57-.45-.9-1.27-.9h-1.9v1.85Zm.51,3.53c.85,0,1.36-.3,1.36-1v0c0-.59-.43-.95-1.42-.95h-2.23v1.93Z"/><path class="cls-2" d="M385.58,60.21v0a4.65,4.65,0,0,1,9.3,0v0a4.65,4.65,0,0,1-9.3,0Zm7.29,0v0a2.66,2.66,0,0,0-2.65-2.75,2.62,2.62,0,0,0-2.63,2.72v0a2.66,2.66,0,0,0,2.65,2.75A2.63,2.63,0,0,0,392.87,60.21Z"/><path class="cls-2" d="M399.72,55.81h4a3.52,3.52,0,0,1,2.55.89,2.79,2.79,0,0,1,.75,2v0a2.72,2.72,0,0,1-1.88,2.71l2.14,3.12H405l-1.87-2.8h-1.52v2.8h-1.92Zm3.87,4.25c.94,0,1.48-.5,1.48-1.23v0c0-.82-.58-1.25-1.51-1.25h-1.92v2.51Z"/><path class="cls-2" d="M414.88,55.75h1.78l3.74,8.81h-2l-.8-2h-3.7l-.8,2h-2Zm2,5.15-1.17-2.84-1.16,2.84Z"/><path class="cls-2" d="M425.79,57.59h-2.66V55.81h7.25v1.78h-2.66v7h-1.93Z"/><path class="cls-2" d="M434.59,60.21v0a4.53,4.53,0,0,1,4.67-4.52,4.47,4.47,0,0,1,4.63,4.49v0a4.65,4.65,0,0,1-9.3,0Zm7.29,0v0a2.66,2.66,0,0,0-2.65-2.75,2.61,2.61,0,0,0-2.62,2.72v0a2.66,2.66,0,0,0,2.65,2.75A2.62,2.62,0,0,0,441.88,60.21ZM440,52.92l1.64.71-1.6,1.5h-1.45Z"/><path class="cls-2" d="M448.73,55.81h4a3.5,3.5,0,0,1,2.55.89,2.75,2.75,0,0,1,.75,2v0a2.71,2.71,0,0,1-1.87,2.71l2.13,3.12H454l-1.87-2.8h-1.51v2.8h-1.93Zm3.88,4.25c.93,0,1.47-.5,1.47-1.23v0c0-.82-.58-1.25-1.51-1.25h-1.91v2.51Z"/><path class="cls-2" d="M461,55.81h1.93v8.75H461Z"/><path class="cls-2" d="M467.83,60.21v0a4.65,4.65,0,0,1,9.3,0v0a4.65,4.65,0,0,1-9.3,0Zm7.29,0v0a2.66,2.66,0,0,0-2.65-2.75,2.62,2.62,0,0,0-2.63,2.72v0a2.66,2.66,0,0,0,2.65,2.75A2.63,2.63,0,0,0,475.12,60.21Z"/><path class="cls-2" d="M488.84,55.81h3.41a4.36,4.36,0,0,1,4.65,4.35v0a4.38,4.38,0,0,1-4.65,4.37h-3.41Zm3.41,7a2.5,2.5,0,0,0,2.64-2.62v0a2.51,2.51,0,0,0-2.64-2.64h-1.48v5.28Z"/><path class="cls-2" d="M501.74,55.81h6.6v1.72h-4.68V59.3h4.12V61h-4.12v1.84h4.74v1.71h-6.66Z"/><path class="cls-2" d="M523.12,55.75h1.77l3.75,8.81h-2l-.8-2h-3.7l-.8,2h-2Zm2,5.15L524,58.06l-1.16,2.84Z"/><path class="cls-2" d="M533.12,55.81h1.77L539,61.2V55.81h1.9v8.75h-1.64L535,59v5.56h-1.9Z"/><path class="cls-2" d="M549.12,55.75h1.77l3.75,8.81h-2l-.8-2h-3.7l-.8,2h-2Zm2,5.15L550,58.06l-1.16,2.84Zm-.52-8,1.63.71-1.6,1.5h-1.44Z"/><path class="cls-2" d="M559.12,55.81H561v7h4.36v1.75h-6.28Z"/><path class="cls-2" d="M570.07,55.81H572v8.75h-1.92Z"/><path class="cls-2" d="M576.71,63.29l1.13-1.36A4,4,0,0,0,580.46,63c.78,0,1.26-.31,1.26-.83v0c0-.49-.3-.74-1.76-1.11-1.77-.45-2.9-.94-2.9-2.68v0c0-1.59,1.27-2.64,3.06-2.64a5.09,5.09,0,0,1,3.25,1.11l-1,1.45a4.1,4.1,0,0,0-2.28-.86c-.74,0-1.12.34-1.12.76v0c0,.57.37.76,1.88,1.15,1.78.46,2.78,1.1,2.78,2.62v0c0,1.73-1.33,2.71-3.21,2.71A5.52,5.52,0,0,1,576.71,63.29Z"/><path class="cls-2" d="M588.43,55.81H595v1.72h-4.69V59.3h4.13V61h-4.13v1.84h4.75v1.71h-6.66Z"/><path class="cls-2" d="M599.33,63.29l1.14-1.36A4,4,0,0,0,603.08,63c.79,0,1.26-.31,1.26-.83v0c0-.49-.3-.74-1.76-1.11-1.76-.45-2.9-.94-2.9-2.68v0c0-1.59,1.28-2.64,3.06-2.64A5.07,5.07,0,0,1,606,56.8l-1,1.45a4,4,0,0,0-2.27-.86c-.74,0-1.13.34-1.13.76v0c0,.57.38.76,1.89,1.15,1.77.46,2.77,1.1,2.77,2.62v0c0,1.73-1.32,2.71-3.21,2.71A5.56,5.56,0,0,1,599.33,63.29Z"/><path class="cls-2" d="M617.54,60.21v0a4.44,4.44,0,0,1,4.56-4.52A4.51,4.51,0,0,1,625.55,57l-1.22,1.41a3.21,3.21,0,0,0-2.24-1,2.59,2.59,0,0,0-2.53,2.72v0a2.59,2.59,0,0,0,2.53,2.75,3.15,3.15,0,0,0,2.3-1l1.23,1.24A4.48,4.48,0,0,1,622,64.71,4.42,4.42,0,0,1,617.54,60.21Z"/><path class="cls-2" d="M630.28,55.81h1.93v7h4.36v1.75h-6.29Z"/><path class="cls-2" d="M641.23,55.81h1.92v8.75h-1.92Zm1.57-2.89,1.64.71-1.6,1.5h-1.45Z"/><path class="cls-2" d="M648.47,55.81h1.77l4.1,5.39V55.81h1.9v8.75H654.6L650.37,59v5.56h-1.9Z"/><path class="cls-2" d="M661.56,55.81h1.92v8.75h-1.92Z"/><path class="cls-2" d="M668.4,60.21v0A4.45,4.45,0,0,1,673,55.67,4.53,4.53,0,0,1,676.42,57l-1.23,1.41a3.19,3.19,0,0,0-2.24-1,2.59,2.59,0,0,0-2.53,2.72v0A2.59,2.59,0,0,0,673,62.94a3.13,3.13,0,0,0,2.3-1l1.23,1.24a4.48,4.48,0,0,1-3.59,1.56A4.42,4.42,0,0,1,668.4,60.21Z"/><path class="cls-2" d="M684.14,55.75h1.78l3.75,8.81h-2l-.8-2h-3.7l-.8,2h-2Zm2,5.15L685,58.06l-1.16,2.84Z"/><path class="cls-2" d="M693.42,63.29l1.13-1.36A4,4,0,0,0,697.17,63c.78,0,1.26-.31,1.26-.83v0c0-.49-.3-.74-1.76-1.11-1.76-.45-2.9-.94-2.9-2.68v0c0-1.59,1.27-2.64,3.06-2.64a5.09,5.09,0,0,1,3.25,1.11l-1,1.45a4.1,4.1,0,0,0-2.28-.86c-.73,0-1.12.34-1.12.76v0c0,.57.37.76,1.89,1.15,1.77.46,2.77,1.1,2.77,2.62v0c0,1.73-1.32,2.71-3.21,2.71A5.54,5.54,0,0,1,693.42,63.29Z"/><path class="cls-8" d="M986.94,32.05l.91-1.09a3.21,3.21,0,0,0,2.09.85c.63,0,1-.25,1-.66v0c0-.39-.24-.59-1.41-.89-1.41-.36-2.32-.75-2.32-2.14v0a2.18,2.18,0,0,1,2.45-2.1,4,4,0,0,1,2.6.88l-.8,1.16a3.28,3.28,0,0,0-1.82-.69c-.59,0-.9.27-.9.61v0c0,.46.3.61,1.51.92,1.42.37,2.22.88,2.22,2.1v0c0,1.39-1.06,2.17-2.57,2.17A4.45,4.45,0,0,1,986.94,32.05Z"/><path class="cls-8" d="M995.89,26.08h1.54v7h-1.54Z"/><path class="cls-8" d="M1000.7,32.05l.91-1.09a3.21,3.21,0,0,0,2.09.85c.63,0,1-.25,1-.66v0c0-.39-.24-.59-1.41-.89-1.41-.36-2.32-.75-2.32-2.14v0a2.18,2.18,0,0,1,2.45-2.1,4,4,0,0,1,2.6.88l-.8,1.16a3.28,3.28,0,0,0-1.82-.69c-.59,0-.9.27-.9.61v0c0,.46.3.61,1.51.92,1.42.37,2.22.88,2.22,2.1v0c0,1.39-1.06,2.17-2.57,2.17A4.45,4.45,0,0,1,1000.7,32.05Z"/><path class="cls-8" d="M1011.06,27.49h-2.13V26.08h5.8v1.41h-2.13v5.58h-1.54Z"/><path class="cls-8" d="M1017.92,26.08h5.27v1.36h-3.75v1.42h3.3v1.37h-3.3V31.7h3.8v1.37h-5.32Z"/><path class="cls-8" d="M1026.61,26.08h1.66l1.84,3,1.84-3h1.66v7h-1.53V28.5l-2,3h0l-2-3v4.54h-1.51Z"/><path class="cls-8" d="M1039.69,26h1.42l3,7h-1.61l-.64-1.57h-3l-.64,1.57h-1.56Zm1.62,4.11-.93-2.27-.93,2.27Z"/><path class="cls-8" d="M987.31,41.07v-4h1.54v4c0,1.14.57,1.73,1.51,1.73s1.51-.57,1.51-1.68v-4h1.54V41a2.82,2.82,0,0,1-3.07,3.16A2.78,2.78,0,0,1,987.31,41.07Zm3.49-6.26,1.31.57-1.28,1.2h-1.16Z"/><path class="cls-8" d="M997,37.08h1.42l3.28,4.3v-4.3h1.52v7h-1.31l-3.39-4.45v4.45H997Z"/><path class="cls-8" d="M1007,37.08h1.54v7H1007Z"/><path class="cls-8" d="M1011.93,40.59v0a3.55,3.55,0,0,1,3.65-3.61,3.61,3.61,0,0,1,2.76,1.07l-1,1.13a2.58,2.58,0,0,0-1.79-.79,2.07,2.07,0,0,0-2,2.18v0a2.08,2.08,0,0,0,2,2.2,2.53,2.53,0,0,0,1.84-.82l1,1a3.58,3.58,0,0,1-2.87,1.25A3.53,3.53,0,0,1,1011.93,40.59Z"/><path class="cls-8" d="M1021.11,40.59v0a3.72,3.72,0,0,1,7.44,0v0a3.72,3.72,0,0,1-7.44,0Zm5.83,0v0a2.13,2.13,0,0,0-2.12-2.2,2.09,2.09,0,0,0-2.1,2.18v0a2.13,2.13,0,0,0,2.12,2.2A2.09,2.09,0,0,0,1026.94,40.59Z"/><path class="cls-8" d="M987.42,48.07h2.73a3.49,3.49,0,0,1,3.72,3.48v0a3.5,3.5,0,0,1-3.72,3.5h-2.73Zm2.73,5.61a2,2,0,0,0,2.11-2.09v0a2,2,0,0,0-2.11-2.11H989v4.22Z"/><path class="cls-8" d="M997.25,48.07h5.27v1.37h-3.75v1.42h3.3v1.37h-3.3V53.7h3.8v1.37h-5.32Z"/><path class="cls-8" d="M1010.46,54.05l.91-1.09a3.21,3.21,0,0,0,2.09.85c.63,0,1-.25,1-.66v0c0-.39-.24-.59-1.41-.89-1.41-.36-2.32-.75-2.32-2.14v0a2.18,2.18,0,0,1,2.45-2.1,4,4,0,0,1,2.6.88L1015,50a3.28,3.28,0,0,0-1.82-.69c-.59,0-.9.27-.9.61v0c0,.46.3.61,1.51.92,1.42.37,2.22.88,2.22,2.1v0c0,1.39-1.06,2.17-2.57,2.17A4.45,4.45,0,0,1,1010.46,54.05Z"/><path class="cls-8" d="M1021.59,48H1023l3,7h-1.61l-.64-1.57h-3l-.64,1.57h-1.57Zm1.62,4.12-.93-2.27-.93,2.27Z"/><path class="cls-8" d="M1029,52.07v-4h1.54v4c0,1.14.57,1.73,1.51,1.73s1.51-.57,1.51-1.68v-4h1.54v4a2.82,2.82,0,0,1-3.07,3.16A2.78,2.78,0,0,1,1029,52.07Zm3.49-6.26,1.31.57-1.28,1.19h-1.16Z"/><path class="cls-8" d="M1038.65,48.07h2.73a3.49,3.49,0,0,1,3.72,3.48v0a3.5,3.5,0,0,1-3.72,3.5h-2.73Zm2.73,5.61a2,2,0,0,0,2.11-2.09v0a2,2,0,0,0-2.11-2.11h-1.19v4.22Z"/><path class="cls-8" d="M1048.47,48.07h5.28v1.37H1050v1.42h3.3v1.37H1050V53.7h3.8v1.37h-5.33Z"/></svg>