<?xml version="1.0"?>
<svg xmlns="http://www.w3.org/2000/svg" id="Layer_1" enable-background="new 0 0 512.694 512.694" height="512px" viewBox="0 0 512.694 512.694" width="512px" class=""><g><path d="m388.499 368.716c6.982 8.559 5.704 21.158-2.855 28.14-59.53 48.56-117.71 77.258-120.158 78.456-2.773 1.357-5.783 2.036-8.792 2.036-2.981 0-5.963-.666-8.716-1.999-2.46-1.191-60.936-29.733-120.632-78.514-8.553-6.989-9.821-19.589-2.832-28.142 6.99-8.554 19.589-9.82 28.142-2.832 42.867 35.029 85.977 59.394 103.996 68.971 17.966-9.628 60.923-34.071 103.707-68.971 8.56-6.984 21.158-5.704 28.14 2.855zm-347.007-82.365c3.037 0 6.121-.694 9.015-2.159 9.855-4.988 13.802-17.021 8.814-26.876-12.36-24.424-18.627-48.806-18.627-72.469 0-30.457 17.606-109.5 98-109.5 27.66 0 52.928 8.686 75.103 25.815 17.11 13.217 25.934 26.782 25.968 26.833 3.64 5.917 9.957 9.563 16.903 9.563s13.263-3.563 16.903-9.479c.087-.135 8.911-13.7 26.021-26.917 22.174-17.13 47.442-25.815 75.103-25.815 80.394 0 98 79.043 98 109.5 0 11.046 8.954 20 20 20s20-8.954 20-20c0-32.518-10.758-67.553-28.778-93.719-17.525-25.447-50.7-55.781-109.222-55.781-58.465 0-97.542 29.517-118 50.606-20.458-21.089-59.535-50.606-118-50.606-58.522 0-91.697 30.334-109.222 55.781-18.02 26.166-28.778 61.201-28.778 93.719 0 29.997 7.717 60.456 22.937 90.531 3.522 6.961 10.558 10.974 17.86 10.973zm461.666 68.397-52.157-35.056v-100.387c0-11.046-8.954-20-20-20h-80c-11.046 0-20 8.954-20 20v16.176l-63.351-45.391c-6.894-4.941-16.157-4.994-23.108-.134l-236 165c-9.053 6.329-11.26 18.798-4.931 27.851s18.798 11.26 27.851 4.931l224.398-156.888 83.493 59.823c6.093 4.366 14.119 4.958 20.787 1.532s10.861-10.293 10.861-17.79v-35.11h40v91.042c0 6.66 3.315 12.884 8.843 16.599l61 41c3.424 2.301 7.302 3.403 11.139 3.403 6.437 0 12.757-3.102 16.617-8.845 6.162-9.168 3.726-21.594-5.442-27.756zm-237.156.599c5.523 0 10-4.477 10-10v-20c0-5.523-4.477-10-10-10h-20c-5.523 0-10 4.477-10 10v20c0 5.523 4.477 10 10 10z" data-original="#000000" class="active-path" data-old_color="#000000" fill="#FFFFFF"/></g> </svg>
